<mxfile host="app.diagrams.net" modified="2023-05-16T21:26:23.489Z" agent="Mozilla/5.0 (Macintosh; Intel Mac OS X 10_15_7) AppleWebKit/605.1.15 (KHTML, like Gecko) Version/15.6.1 Safari/605.1.15" etag="ramlS_qsHOPOPnotWxjY" version="21.2.9" type="device">
  <diagram name="Страница 1" id="ppinPdBVUEu68U0y8L-f">
    <mxGraphModel dx="1235" dy="1907" grid="1" gridSize="10" guides="1" tooltips="1" connect="1" arrows="1" fold="1" page="1" pageScale="1" pageWidth="827" pageHeight="1169" math="0" shadow="0">
      <root>
        <mxCell id="0" />
        <mxCell id="1" parent="0" />
        <mxCell id="o4cNiu59GhhHxO87jH9N-3" value="" style="rounded=0;whiteSpace=wrap;html=1;" vertex="1" parent="1">
          <mxGeometry x="200" y="-90" width="640" height="700" as="geometry" />
        </mxCell>
        <mxCell id="o4cNiu59GhhHxO87jH9N-1" value="Начальство лікарні" style="shape=umlActor;verticalLabelPosition=bottom;verticalAlign=top;html=1;outlineConnect=0;" vertex="1" parent="1">
          <mxGeometry x="60" y="180" width="30" height="60" as="geometry" />
        </mxCell>
        <mxCell id="o4cNiu59GhhHxO87jH9N-4" value="Зареєструвати лікарню" style="ellipse;whiteSpace=wrap;html=1;" vertex="1" parent="1">
          <mxGeometry x="220" y="-80" width="140" height="100" as="geometry" />
        </mxCell>
        <mxCell id="o4cNiu59GhhHxO87jH9N-6" value="Залогінитись як адмін лікарні" style="ellipse;whiteSpace=wrap;html=1;" vertex="1" parent="1">
          <mxGeometry x="220" y="140" width="140" height="100" as="geometry" />
        </mxCell>
        <mxCell id="o4cNiu59GhhHxO87jH9N-8" value="Відправити лист на пошту з запрошенням на реєстрацію персоналу" style="ellipse;whiteSpace=wrap;html=1;" vertex="1" parent="1">
          <mxGeometry x="220" y="30" width="140" height="100" as="geometry" />
        </mxCell>
        <mxCell id="o4cNiu59GhhHxO87jH9N-12" value="Звільнити медперсонал" style="ellipse;whiteSpace=wrap;html=1;strokeColor=#000000;" vertex="1" parent="1">
          <mxGeometry x="390" y="90" width="140" height="100" as="geometry" />
        </mxCell>
        <mxCell id="o4cNiu59GhhHxO87jH9N-15" value="Додати медикаменти" style="ellipse;whiteSpace=wrap;html=1;" vertex="1" parent="1">
          <mxGeometry x="414" y="200" width="140" height="100" as="geometry" />
        </mxCell>
        <mxCell id="o4cNiu59GhhHxO87jH9N-19" value="Отримати список медикаментів" style="ellipse;whiteSpace=wrap;html=1;" vertex="1" parent="1">
          <mxGeometry x="380" y="300" width="140" height="100" as="geometry" />
        </mxCell>
        <mxCell id="o4cNiu59GhhHxO87jH9N-23" value="Поставити на облік в лікарні пацієнта" style="ellipse;whiteSpace=wrap;html=1;" vertex="1" parent="1">
          <mxGeometry x="310" y="400" width="140" height="100" as="geometry" />
        </mxCell>
        <mxCell id="o4cNiu59GhhHxO87jH9N-26" value="Виписати з лікарні пацієнта" style="ellipse;whiteSpace=wrap;html=1;strokeColor=#000000;" vertex="1" parent="1">
          <mxGeometry x="210" y="480" width="140" height="100" as="geometry" />
        </mxCell>
        <mxCell id="o4cNiu59GhhHxO87jH9N-28" value="Медперсонал" style="shape=umlActor;verticalLabelPosition=bottom;verticalAlign=top;html=1;outlineConnect=0;" vertex="1" parent="1">
          <mxGeometry x="880" y="-20" width="30" height="60" as="geometry" />
        </mxCell>
        <mxCell id="o4cNiu59GhhHxO87jH9N-29" value="Реєстрація" style="ellipse;whiteSpace=wrap;html=1;" vertex="1" parent="1">
          <mxGeometry x="670" y="-60" width="140" height="100" as="geometry" />
        </mxCell>
        <mxCell id="o4cNiu59GhhHxO87jH9N-34" value="Телеграм реєстрація і ідентифікація медперсоналу" style="ellipse;whiteSpace=wrap;html=1;" vertex="1" parent="1">
          <mxGeometry x="510" y="30" width="140" height="90" as="geometry" />
        </mxCell>
        <mxCell id="o4cNiu59GhhHxO87jH9N-37" value="Отримати список пацієнтів" style="ellipse;whiteSpace=wrap;html=1;" vertex="1" parent="1">
          <mxGeometry x="680" y="190" width="140" height="100" as="geometry" />
        </mxCell>
        <mxCell id="o4cNiu59GhhHxO87jH9N-41" value="Отримати персональну інформацію" style="ellipse;whiteSpace=wrap;html=1;" vertex="1" parent="1">
          <mxGeometry x="680" y="80" width="140" height="100" as="geometry" />
        </mxCell>
        <mxCell id="o4cNiu59GhhHxO87jH9N-45" value="Зафіксувати використання медикаменту" style="ellipse;whiteSpace=wrap;html=1;" vertex="1" parent="1">
          <mxGeometry x="680" y="320" width="140" height="100" as="geometry" />
        </mxCell>
        <mxCell id="o4cNiu59GhhHxO87jH9N-51" value="Згенерувати звіт по використанню медикаментів" style="ellipse;whiteSpace=wrap;html=1;" vertex="1" parent="1">
          <mxGeometry x="600" y="420" width="140" height="100" as="geometry" />
        </mxCell>
        <mxCell id="o4cNiu59GhhHxO87jH9N-66" value="" style="endArrow=none;html=1;rounded=0;entryX=0;entryY=0.5;entryDx=0;entryDy=0;" edge="1" parent="1" target="o4cNiu59GhhHxO87jH9N-4">
          <mxGeometry width="50" height="50" relative="1" as="geometry">
            <mxPoint x="100" y="210" as="sourcePoint" />
            <mxPoint x="160" y="-40" as="targetPoint" />
            <Array as="points">
              <mxPoint x="160" y="210" />
              <mxPoint x="160" y="-30" />
            </Array>
          </mxGeometry>
        </mxCell>
        <mxCell id="o4cNiu59GhhHxO87jH9N-68" value="" style="endArrow=none;html=1;rounded=0;entryX=0;entryY=0.5;entryDx=0;entryDy=0;" edge="1" parent="1" target="o4cNiu59GhhHxO87jH9N-8">
          <mxGeometry width="50" height="50" relative="1" as="geometry">
            <mxPoint x="160" y="210" as="sourcePoint" />
            <mxPoint x="160" y="80" as="targetPoint" />
            <Array as="points">
              <mxPoint x="160" y="80" />
            </Array>
          </mxGeometry>
        </mxCell>
        <mxCell id="o4cNiu59GhhHxO87jH9N-69" value="" style="endArrow=none;html=1;rounded=0;entryX=0;entryY=0.5;entryDx=0;entryDy=0;" edge="1" parent="1" target="o4cNiu59GhhHxO87jH9N-6">
          <mxGeometry width="50" height="50" relative="1" as="geometry">
            <mxPoint x="160" y="190" as="sourcePoint" />
            <mxPoint x="170" y="300" as="targetPoint" />
            <Array as="points" />
          </mxGeometry>
        </mxCell>
        <mxCell id="o4cNiu59GhhHxO87jH9N-70" value="" style="endArrow=none;html=1;rounded=0;entryX=0;entryY=0.5;entryDx=0;entryDy=0;" edge="1" parent="1" target="o4cNiu59GhhHxO87jH9N-15">
          <mxGeometry width="50" height="50" relative="1" as="geometry">
            <mxPoint x="160" y="210" as="sourcePoint" />
            <mxPoint x="160" y="310" as="targetPoint" />
            <Array as="points">
              <mxPoint x="160" y="250" />
            </Array>
          </mxGeometry>
        </mxCell>
        <mxCell id="o4cNiu59GhhHxO87jH9N-71" value="" style="endArrow=none;html=1;rounded=0;entryX=0;entryY=0.5;entryDx=0;entryDy=0;" edge="1" parent="1" target="o4cNiu59GhhHxO87jH9N-19">
          <mxGeometry width="50" height="50" relative="1" as="geometry">
            <mxPoint x="160" y="250" as="sourcePoint" />
            <mxPoint x="200" y="320" as="targetPoint" />
            <Array as="points">
              <mxPoint x="160" y="350" />
            </Array>
          </mxGeometry>
        </mxCell>
        <mxCell id="o4cNiu59GhhHxO87jH9N-72" value="" style="endArrow=none;html=1;rounded=0;entryX=0;entryY=0.5;entryDx=0;entryDy=0;" edge="1" parent="1" target="o4cNiu59GhhHxO87jH9N-23">
          <mxGeometry width="50" height="50" relative="1" as="geometry">
            <mxPoint x="160" y="340" as="sourcePoint" />
            <mxPoint x="200" y="390" as="targetPoint" />
            <Array as="points">
              <mxPoint x="160" y="450" />
            </Array>
          </mxGeometry>
        </mxCell>
        <mxCell id="o4cNiu59GhhHxO87jH9N-73" value="" style="endArrow=none;html=1;rounded=0;entryX=0;entryY=0.5;entryDx=0;entryDy=0;" edge="1" parent="1" target="o4cNiu59GhhHxO87jH9N-26">
          <mxGeometry width="50" height="50" relative="1" as="geometry">
            <mxPoint x="160" y="410" as="sourcePoint" />
            <mxPoint x="170" y="480" as="targetPoint" />
            <Array as="points">
              <mxPoint x="160" y="480" />
              <mxPoint x="160" y="530" />
            </Array>
          </mxGeometry>
        </mxCell>
        <mxCell id="o4cNiu59GhhHxO87jH9N-74" value="" style="endArrow=none;html=1;rounded=0;entryX=0;entryY=0.5;entryDx=0;entryDy=0;" edge="1" parent="1" target="o4cNiu59GhhHxO87jH9N-12">
          <mxGeometry width="50" height="50" relative="1" as="geometry">
            <mxPoint x="160" y="140" as="sourcePoint" />
            <mxPoint x="230" y="120" as="targetPoint" />
          </mxGeometry>
        </mxCell>
        <mxCell id="o4cNiu59GhhHxO87jH9N-75" value="" style="endArrow=none;html=1;rounded=0;exitX=1.006;exitY=0.424;exitDx=0;exitDy=0;exitPerimeter=0;" edge="1" parent="1" source="o4cNiu59GhhHxO87jH9N-29">
          <mxGeometry width="50" height="50" relative="1" as="geometry">
            <mxPoint x="930" y="170" as="sourcePoint" />
            <mxPoint x="870" y="20" as="targetPoint" />
            <Array as="points">
              <mxPoint x="850" y="-20" />
              <mxPoint x="850" y="20" />
            </Array>
          </mxGeometry>
        </mxCell>
        <mxCell id="o4cNiu59GhhHxO87jH9N-76" value="" style="endArrow=none;html=1;rounded=0;exitX=1;exitY=0.5;exitDx=0;exitDy=0;" edge="1" parent="1" source="o4cNiu59GhhHxO87jH9N-41">
          <mxGeometry width="50" height="50" relative="1" as="geometry">
            <mxPoint x="720" y="240" as="sourcePoint" />
            <mxPoint x="850" y="20" as="targetPoint" />
            <Array as="points">
              <mxPoint x="850" y="130" />
            </Array>
          </mxGeometry>
        </mxCell>
        <mxCell id="o4cNiu59GhhHxO87jH9N-77" value="" style="endArrow=none;html=1;rounded=0;exitX=1;exitY=0.5;exitDx=0;exitDy=0;" edge="1" parent="1" source="o4cNiu59GhhHxO87jH9N-37">
          <mxGeometry width="50" height="50" relative="1" as="geometry">
            <mxPoint x="810" y="230" as="sourcePoint" />
            <mxPoint x="850" y="130" as="targetPoint" />
            <Array as="points">
              <mxPoint x="850" y="240" />
            </Array>
          </mxGeometry>
        </mxCell>
        <mxCell id="o4cNiu59GhhHxO87jH9N-78" value="" style="endArrow=none;html=1;rounded=0;exitX=1;exitY=0.5;exitDx=0;exitDy=0;" edge="1" parent="1" source="o4cNiu59GhhHxO87jH9N-45">
          <mxGeometry width="50" height="50" relative="1" as="geometry">
            <mxPoint x="840" y="350" as="sourcePoint" />
            <mxPoint x="850" y="230" as="targetPoint" />
            <Array as="points">
              <mxPoint x="850" y="370" />
            </Array>
          </mxGeometry>
        </mxCell>
        <mxCell id="o4cNiu59GhhHxO87jH9N-79" value="" style="endArrow=none;html=1;rounded=0;exitX=1;exitY=0.5;exitDx=0;exitDy=0;" edge="1" parent="1" source="o4cNiu59GhhHxO87jH9N-51">
          <mxGeometry width="50" height="50" relative="1" as="geometry">
            <mxPoint x="830" y="450" as="sourcePoint" />
            <mxPoint x="850" y="360" as="targetPoint" />
            <Array as="points">
              <mxPoint x="850" y="470" />
            </Array>
          </mxGeometry>
        </mxCell>
        <mxCell id="o4cNiu59GhhHxO87jH9N-81" value="" style="endArrow=none;html=1;rounded=0;exitX=1;exitY=0.5;exitDx=0;exitDy=0;" edge="1" parent="1" source="o4cNiu59GhhHxO87jH9N-34">
          <mxGeometry width="50" height="50" relative="1" as="geometry">
            <mxPoint x="690" y="90" as="sourcePoint" />
            <mxPoint x="850" y="80" as="targetPoint" />
          </mxGeometry>
        </mxCell>
        <mxCell id="o4cNiu59GhhHxO87jH9N-82" value="" style="endArrow=classic;html=1;rounded=0;exitX=0;exitY=0;exitDx=0;exitDy=0;entryX=0.973;entryY=0.721;entryDx=0;entryDy=0;dashed=1;entryPerimeter=0;" edge="1" parent="1" source="o4cNiu59GhhHxO87jH9N-51" target="o4cNiu59GhhHxO87jH9N-19">
          <mxGeometry width="50" height="50" relative="1" as="geometry">
            <mxPoint x="620" y="410" as="sourcePoint" />
            <mxPoint x="670" y="360" as="targetPoint" />
          </mxGeometry>
        </mxCell>
        <mxCell id="o4cNiu59GhhHxO87jH9N-83" value="включає" style="edgeLabel;html=1;align=center;verticalAlign=middle;resizable=0;points=[];" vertex="1" connectable="0" parent="o4cNiu59GhhHxO87jH9N-82">
          <mxGeometry x="0.4018" y="-2" relative="1" as="geometry">
            <mxPoint as="offset" />
          </mxGeometry>
        </mxCell>
        <mxCell id="o4cNiu59GhhHxO87jH9N-84" value="" style="endArrow=classic;html=1;rounded=0;exitX=0.5;exitY=0;exitDx=0;exitDy=0;dashed=1;" edge="1" parent="1" source="o4cNiu59GhhHxO87jH9N-51">
          <mxGeometry width="50" height="50" relative="1" as="geometry">
            <mxPoint x="620" y="385" as="sourcePoint" />
            <mxPoint x="690" y="250" as="targetPoint" />
            <Array as="points" />
          </mxGeometry>
        </mxCell>
        <mxCell id="o4cNiu59GhhHxO87jH9N-85" value="включає" style="edgeLabel;html=1;align=center;verticalAlign=middle;resizable=0;points=[];" vertex="1" connectable="0" parent="o4cNiu59GhhHxO87jH9N-84">
          <mxGeometry x="-0.477" y="-2" relative="1" as="geometry">
            <mxPoint x="-3" y="24" as="offset" />
          </mxGeometry>
        </mxCell>
        <mxCell id="o4cNiu59GhhHxO87jH9N-89" value="" style="endArrow=classic;html=1;rounded=1;exitX=0.5;exitY=0;exitDx=0;exitDy=0;entryX=0.306;entryY=0.993;entryDx=0;entryDy=0;entryPerimeter=0;dashed=1;" edge="1" parent="1" source="o4cNiu59GhhHxO87jH9N-26" target="o4cNiu59GhhHxO87jH9N-6">
          <mxGeometry width="50" height="50" relative="1" as="geometry">
            <mxPoint x="300" y="370" as="sourcePoint" />
            <mxPoint x="350" y="320" as="targetPoint" />
          </mxGeometry>
        </mxCell>
        <mxCell id="o4cNiu59GhhHxO87jH9N-90" value="включає" style="edgeLabel;html=1;align=center;verticalAlign=middle;resizable=0;points=[];" vertex="1" connectable="0" parent="o4cNiu59GhhHxO87jH9N-89">
          <mxGeometry x="-0.3527" relative="1" as="geometry">
            <mxPoint as="offset" />
          </mxGeometry>
        </mxCell>
        <mxCell id="o4cNiu59GhhHxO87jH9N-91" value="" style="endArrow=classic;html=1;rounded=0;exitX=0.239;exitY=0.067;exitDx=0;exitDy=0;exitPerimeter=0;entryX=0.5;entryY=1;entryDx=0;entryDy=0;dashed=1;" edge="1" parent="1" source="o4cNiu59GhhHxO87jH9N-23" target="o4cNiu59GhhHxO87jH9N-6">
          <mxGeometry width="50" height="50" relative="1" as="geometry">
            <mxPoint x="300" y="340" as="sourcePoint" />
            <mxPoint x="350" y="290" as="targetPoint" />
          </mxGeometry>
        </mxCell>
        <mxCell id="o4cNiu59GhhHxO87jH9N-92" value="включає" style="edgeLabel;html=1;align=center;verticalAlign=middle;resizable=0;points=[];" vertex="1" connectable="0" parent="o4cNiu59GhhHxO87jH9N-91">
          <mxGeometry x="-0.4064" y="3" relative="1" as="geometry">
            <mxPoint y="-23" as="offset" />
          </mxGeometry>
        </mxCell>
        <mxCell id="o4cNiu59GhhHxO87jH9N-93" value="" style="endArrow=classic;html=1;rounded=0;exitX=0.002;exitY=0.324;exitDx=0;exitDy=0;exitPerimeter=0;dashed=1;" edge="1" parent="1" source="o4cNiu59GhhHxO87jH9N-19">
          <mxGeometry width="50" height="50" relative="1" as="geometry">
            <mxPoint x="340" y="320" as="sourcePoint" />
            <mxPoint x="300" y="230" as="targetPoint" />
          </mxGeometry>
        </mxCell>
        <mxCell id="o4cNiu59GhhHxO87jH9N-94" value="включає" style="edgeLabel;html=1;align=center;verticalAlign=middle;resizable=0;points=[];" vertex="1" connectable="0" parent="o4cNiu59GhhHxO87jH9N-93">
          <mxGeometry x="-0.3311" y="-1" relative="1" as="geometry">
            <mxPoint x="1" as="offset" />
          </mxGeometry>
        </mxCell>
        <mxCell id="o4cNiu59GhhHxO87jH9N-95" value="" style="endArrow=classic;html=1;rounded=0;entryX=0;entryY=1;entryDx=0;entryDy=0;exitX=1;exitY=0;exitDx=0;exitDy=0;dashed=1;" edge="1" parent="1" source="o4cNiu59GhhHxO87jH9N-34" target="o4cNiu59GhhHxO87jH9N-29">
          <mxGeometry width="50" height="50" relative="1" as="geometry">
            <mxPoint x="630" y="60" as="sourcePoint" />
            <mxPoint x="670" y="10" as="targetPoint" />
          </mxGeometry>
        </mxCell>
        <mxCell id="o4cNiu59GhhHxO87jH9N-96" value="залежить" style="edgeLabel;html=1;align=center;verticalAlign=middle;resizable=0;points=[];" vertex="1" connectable="0" parent="o4cNiu59GhhHxO87jH9N-95">
          <mxGeometry x="-0.358" y="-2" relative="1" as="geometry">
            <mxPoint x="-1" y="-9" as="offset" />
          </mxGeometry>
        </mxCell>
        <mxCell id="o4cNiu59GhhHxO87jH9N-97" value="включає" style="endArrow=classic;html=1;rounded=0;exitX=0.5;exitY=0;exitDx=0;exitDy=0;entryX=0.5;entryY=1;entryDx=0;entryDy=0;dashed=1;" edge="1" parent="1" source="o4cNiu59GhhHxO87jH9N-45" target="o4cNiu59GhhHxO87jH9N-37">
          <mxGeometry x="-0.0118" width="50" height="50" relative="1" as="geometry">
            <mxPoint x="630" y="300" as="sourcePoint" />
            <mxPoint x="680" y="250" as="targetPoint" />
            <mxPoint as="offset" />
          </mxGeometry>
        </mxCell>
        <mxCell id="o4cNiu59GhhHxO87jH9N-98" value="" style="endArrow=classic;html=1;rounded=0;exitX=0;exitY=0.5;exitDx=0;exitDy=0;entryX=1;entryY=0.5;entryDx=0;entryDy=0;dashed=1;" edge="1" parent="1" source="o4cNiu59GhhHxO87jH9N-45" target="o4cNiu59GhhHxO87jH9N-19">
          <mxGeometry width="50" height="50" relative="1" as="geometry">
            <mxPoint x="580" y="330" as="sourcePoint" />
            <mxPoint x="630" y="280" as="targetPoint" />
          </mxGeometry>
        </mxCell>
        <mxCell id="o4cNiu59GhhHxO87jH9N-99" value="включає" style="edgeLabel;html=1;align=center;verticalAlign=middle;resizable=0;points=[];" vertex="1" connectable="0" parent="o4cNiu59GhhHxO87jH9N-98">
          <mxGeometry x="0.1732" relative="1" as="geometry">
            <mxPoint as="offset" />
          </mxGeometry>
        </mxCell>
        <mxCell id="o4cNiu59GhhHxO87jH9N-100" value="" style="endArrow=classic;html=1;rounded=0;exitX=0.265;exitY=0.045;exitDx=0;exitDy=0;exitPerimeter=0;entryX=0.301;entryY=1.001;entryDx=0;entryDy=0;entryPerimeter=0;dashed=1;" edge="1" parent="1" source="o4cNiu59GhhHxO87jH9N-51" target="o4cNiu59GhhHxO87jH9N-34">
          <mxGeometry width="50" height="50" relative="1" as="geometry">
            <mxPoint x="590" y="380" as="sourcePoint" />
            <mxPoint x="640" y="330" as="targetPoint" />
          </mxGeometry>
        </mxCell>
        <mxCell id="o4cNiu59GhhHxO87jH9N-101" value="включає" style="edgeLabel;html=1;align=center;verticalAlign=middle;resizable=0;points=[];" vertex="1" connectable="0" parent="o4cNiu59GhhHxO87jH9N-100">
          <mxGeometry x="0.2076" y="-1" relative="1" as="geometry">
            <mxPoint as="offset" />
          </mxGeometry>
        </mxCell>
        <mxCell id="o4cNiu59GhhHxO87jH9N-102" value="" style="endArrow=classic;html=1;rounded=0;exitX=0;exitY=0;exitDx=0;exitDy=0;entryX=0.5;entryY=1;entryDx=0;entryDy=0;dashed=1;" edge="1" parent="1" source="o4cNiu59GhhHxO87jH9N-45" target="o4cNiu59GhhHxO87jH9N-34">
          <mxGeometry width="50" height="50" relative="1" as="geometry">
            <mxPoint x="630" y="330" as="sourcePoint" />
            <mxPoint x="680" y="280" as="targetPoint" />
          </mxGeometry>
        </mxCell>
        <mxCell id="o4cNiu59GhhHxO87jH9N-103" value="включає" style="edgeLabel;html=1;align=center;verticalAlign=middle;resizable=0;points=[];" vertex="1" connectable="0" parent="o4cNiu59GhhHxO87jH9N-102">
          <mxGeometry x="-0.3421" y="-2" relative="1" as="geometry">
            <mxPoint x="-34" y="-62" as="offset" />
          </mxGeometry>
        </mxCell>
        <mxCell id="o4cNiu59GhhHxO87jH9N-104" value="" style="endArrow=classic;html=1;rounded=0;exitX=0;exitY=0;exitDx=0;exitDy=0;entryX=0.733;entryY=0.971;entryDx=0;entryDy=0;entryPerimeter=0;dashed=1;" edge="1" parent="1" source="o4cNiu59GhhHxO87jH9N-37" target="o4cNiu59GhhHxO87jH9N-34">
          <mxGeometry width="50" height="50" relative="1" as="geometry">
            <mxPoint x="600" y="200" as="sourcePoint" />
            <mxPoint x="650" y="150" as="targetPoint" />
          </mxGeometry>
        </mxCell>
        <mxCell id="o4cNiu59GhhHxO87jH9N-105" value="включає" style="edgeLabel;html=1;align=center;verticalAlign=middle;resizable=0;points=[];" vertex="1" connectable="0" parent="o4cNiu59GhhHxO87jH9N-104">
          <mxGeometry x="-0.3079" y="-1" relative="1" as="geometry">
            <mxPoint as="offset" />
          </mxGeometry>
        </mxCell>
        <mxCell id="o4cNiu59GhhHxO87jH9N-106" value="" style="endArrow=classic;html=1;rounded=0;exitX=0;exitY=0.5;exitDx=0;exitDy=0;entryX=0.939;entryY=0.778;entryDx=0;entryDy=0;entryPerimeter=0;dashed=1;" edge="1" parent="1" source="o4cNiu59GhhHxO87jH9N-41" target="o4cNiu59GhhHxO87jH9N-34">
          <mxGeometry width="50" height="50" relative="1" as="geometry">
            <mxPoint x="960" y="220" as="sourcePoint" />
            <mxPoint x="1010" y="170" as="targetPoint" />
          </mxGeometry>
        </mxCell>
        <mxCell id="o4cNiu59GhhHxO87jH9N-107" value="включає" style="edgeLabel;html=1;align=center;verticalAlign=middle;resizable=0;points=[];" vertex="1" connectable="0" parent="o4cNiu59GhhHxO87jH9N-106">
          <mxGeometry x="-0.0833" y="3" relative="1" as="geometry">
            <mxPoint x="-11" as="offset" />
          </mxGeometry>
        </mxCell>
        <mxCell id="o4cNiu59GhhHxO87jH9N-108" value="" style="endArrow=classic;html=1;rounded=0;exitX=0;exitY=0.5;exitDx=0;exitDy=0;entryX=0.994;entryY=0.371;entryDx=0;entryDy=0;entryPerimeter=0;dashed=1;" edge="1" parent="1" source="o4cNiu59GhhHxO87jH9N-29" target="o4cNiu59GhhHxO87jH9N-8">
          <mxGeometry width="50" height="50" relative="1" as="geometry">
            <mxPoint x="510" y="20" as="sourcePoint" />
            <mxPoint x="560" y="-30" as="targetPoint" />
          </mxGeometry>
        </mxCell>
        <mxCell id="o4cNiu59GhhHxO87jH9N-109" value="залежить" style="edgeLabel;html=1;align=center;verticalAlign=middle;resizable=0;points=[];" vertex="1" connectable="0" parent="o4cNiu59GhhHxO87jH9N-108">
          <mxGeometry x="0.2223" y="1" relative="1" as="geometry">
            <mxPoint as="offset" />
          </mxGeometry>
        </mxCell>
        <mxCell id="o4cNiu59GhhHxO87jH9N-110" value="" style="endArrow=classic;html=1;rounded=0;exitX=0;exitY=1;exitDx=0;exitDy=0;entryX=1.002;entryY=0.39;entryDx=0;entryDy=0;entryPerimeter=0;dashed=1;" edge="1" parent="1" source="o4cNiu59GhhHxO87jH9N-12" target="o4cNiu59GhhHxO87jH9N-6">
          <mxGeometry width="50" height="50" relative="1" as="geometry">
            <mxPoint x="90" y="360" as="sourcePoint" />
            <mxPoint x="140" y="310" as="targetPoint" />
          </mxGeometry>
        </mxCell>
        <mxCell id="o4cNiu59GhhHxO87jH9N-111" value="включає" style="edgeLabel;html=1;align=center;verticalAlign=middle;resizable=0;points=[];" vertex="1" connectable="0" parent="o4cNiu59GhhHxO87jH9N-110">
          <mxGeometry x="0.0477" y="4" relative="1" as="geometry">
            <mxPoint x="6" y="-9" as="offset" />
          </mxGeometry>
        </mxCell>
        <mxCell id="o4cNiu59GhhHxO87jH9N-112" value="включає" style="endArrow=classic;html=1;rounded=0;entryX=0.973;entryY=0.729;entryDx=0;entryDy=0;entryPerimeter=0;dashed=1;exitX=0.028;exitY=0.306;exitDx=0;exitDy=0;exitPerimeter=0;" edge="1" parent="1" source="o4cNiu59GhhHxO87jH9N-15" target="o4cNiu59GhhHxO87jH9N-6">
          <mxGeometry width="50" height="50" relative="1" as="geometry">
            <mxPoint x="408" y="222" as="sourcePoint" />
            <mxPoint x="130" y="310" as="targetPoint" />
          </mxGeometry>
        </mxCell>
      </root>
    </mxGraphModel>
  </diagram>
</mxfile>
